<mxfile host="65bd71144e">
    <diagram id="mAyJTIYW1IJ9Vq9FEdLr" name="Page-1">
        <mxGraphModel dx="742" dy="747" grid="1" gridSize="10" guides="1" tooltips="1" connect="1" arrows="1" fold="1" page="1" pageScale="1" pageWidth="850" pageHeight="1100" math="0" shadow="0">
            <root>
                <mxCell id="0"/>
                <mxCell id="1" parent="0"/>
                <mxCell id="21" value="JDBC Connection" style="edgeStyle=none;html=1;exitX=0.5;exitY=1;exitDx=0;exitDy=0;entryX=0.5;entryY=0;entryDx=0;entryDy=0;entryPerimeter=0;startArrow=classic;startFill=1;" parent="1" source="16" target="9" edge="1">
                    <mxGeometry relative="1" as="geometry"/>
                </mxCell>
                <mxCell id="16" value="" style="rounded=0;whiteSpace=wrap;html=1;" parent="1" vertex="1">
                    <mxGeometry x="75" y="220" width="650" height="170" as="geometry"/>
                </mxCell>
                <mxCell id="19" value="REST API" style="edgeStyle=none;html=1;exitX=0.5;exitY=1;exitDx=0;exitDy=0;entryX=0.5;entryY=0;entryDx=0;entryDy=0;startArrow=classic;startFill=1;" parent="1" source="15" target="16" edge="1">
                    <mxGeometry relative="1" as="geometry"/>
                </mxCell>
                <mxCell id="15" value="" style="rounded=0;whiteSpace=wrap;html=1;" parent="1" vertex="1">
                    <mxGeometry x="90" y="50" width="620" height="100" as="geometry"/>
                </mxCell>
                <mxCell id="2" value="login" style="rounded=0;whiteSpace=wrap;html=1;" parent="1" vertex="1">
                    <mxGeometry x="120" y="80" width="80" height="40" as="geometry"/>
                </mxCell>
                <mxCell id="3" value="register" style="rounded=0;whiteSpace=wrap;html=1;" parent="1" vertex="1">
                    <mxGeometry x="360" y="80" width="80" height="40" as="geometry"/>
                </mxCell>
                <mxCell id="4" value="signup" style="rounded=0;whiteSpace=wrap;html=1;" parent="1" vertex="1">
                    <mxGeometry x="240" y="80" width="80" height="40" as="geometry"/>
                </mxCell>
                <mxCell id="5" value="administrator" style="rounded=0;whiteSpace=wrap;html=1;" parent="1" vertex="1">
                    <mxGeometry x="480" y="80" width="80" height="40" as="geometry"/>
                </mxCell>
                <mxCell id="6" value="volunteer" style="rounded=0;whiteSpace=wrap;html=1;" parent="1" vertex="1">
                    <mxGeometry x="600" y="80" width="80" height="40" as="geometry"/>
                </mxCell>
                <mxCell id="7" value="User Controller" style="rounded=0;whiteSpace=wrap;html=1;" parent="1" vertex="1">
                    <mxGeometry x="105" y="250" width="120" height="40" as="geometry"/>
                </mxCell>
                <mxCell id="8" value="User Service" style="rounded=0;whiteSpace=wrap;html=1;" parent="1" vertex="1">
                    <mxGeometry x="105" y="330" width="120" height="40" as="geometry"/>
                </mxCell>
                <mxCell id="9" value="DB&lt;br&gt;(MySQL)" style="shape=cylinder3;whiteSpace=wrap;html=1;boundedLbl=1;backgroundOutline=1;size=15;" parent="1" vertex="1">
                    <mxGeometry x="370" y="450" width="60" height="80" as="geometry"/>
                </mxCell>
                <mxCell id="10" value="Event Controller" style="rounded=0;whiteSpace=wrap;html=1;" parent="1" vertex="1">
                    <mxGeometry x="265" y="250" width="120" height="40" as="geometry"/>
                </mxCell>
                <mxCell id="11" value="Event Service" style="rounded=0;whiteSpace=wrap;html=1;" parent="1" vertex="1">
                    <mxGeometry x="265" y="330" width="120" height="40" as="geometry"/>
                </mxCell>
                <mxCell id="13" value="Notification Service" style="rounded=0;whiteSpace=wrap;html=1;" parent="1" vertex="1">
                    <mxGeometry x="425" y="330" width="120" height="40" as="geometry"/>
                </mxCell>
                <mxCell id="14" value="Matching Service" style="rounded=0;whiteSpace=wrap;html=1;" parent="1" vertex="1">
                    <mxGeometry x="585" y="330" width="120" height="40" as="geometry"/>
                </mxCell>
                <mxCell id="17" value="Frontend (React)" style="text;html=1;strokeColor=none;fillColor=none;align=center;verticalAlign=middle;whiteSpace=wrap;rounded=0;" parent="1" vertex="1">
                    <mxGeometry x="90" y="50" width="110" height="30" as="geometry"/>
                </mxCell>
                <mxCell id="18" value="Backend (Java Spring)" style="text;html=1;strokeColor=none;fillColor=none;align=center;verticalAlign=middle;whiteSpace=wrap;rounded=0;" parent="1" vertex="1">
                    <mxGeometry x="80" y="220" width="130" height="30" as="geometry"/>
                </mxCell>
            </root>
        </mxGraphModel>
    </diagram>
</mxfile>